<mxfile host="65bd71144e">
    <diagram id="B98Myi7qIVIVGV0O9Yf8" name="Page-1">
        <mxGraphModel dx="508" dy="505" grid="1" gridSize="10" guides="1" tooltips="1" connect="1" arrows="1" fold="1" page="1" pageScale="1" pageWidth="827" pageHeight="1169" background="#ffffff" math="1" shadow="0">
            <root>
                <mxCell id="0"/>
                <mxCell id="1" parent="0"/>
                <mxCell id="huDF47PdF3qLj8TZO268-3" style="edgeStyle=orthogonalEdgeStyle;rounded=0;orthogonalLoop=1;jettySize=auto;html=1;" parent="1" source="huDF47PdF3qLj8TZO268-2" target="huDF47PdF3qLj8TZO268-4" edge="1">
                    <mxGeometry relative="1" as="geometry">
                        <mxPoint x="386" y="220" as="targetPoint"/>
                    </mxGeometry>
                </mxCell>
                <mxCell id="huDF47PdF3qLj8TZO268-2" value="Начало" style="ellipse;whiteSpace=wrap;html=1;" parent="1" vertex="1">
                    <mxGeometry x="325" y="20" width="110" height="40" as="geometry"/>
                </mxCell>
                <mxCell id="huDF47PdF3qLj8TZO268-9" value="" style="group" parent="1" vertex="1" connectable="0">
                    <mxGeometry x="240" y="90" width="280" height="100" as="geometry"/>
                </mxCell>
                <mxCell id="huDF47PdF3qLj8TZO268-4" value="" style="shape=parallelogram;perimeter=parallelogramPerimeter;whiteSpace=wrap;html=1;fixedSize=1;perimeterSpacing=0;align=center;" parent="huDF47PdF3qLj8TZO268-9" vertex="1">
                    <mxGeometry width="280" height="100" as="geometry"/>
                </mxCell>
                <mxCell id="huDF47PdF3qLj8TZO268-8" value="Кол-во классов \( M \)&lt;br&gt;&lt;div&gt;Априорные вероятности гипотез&lt;/div&gt;Образ \( x \), который необходимо распознать&lt;br&gt;Математические ожидания и матрицы ковариаций классов" style="text;html=1;strokeColor=none;fillColor=none;align=center;verticalAlign=middle;whiteSpace=wrap;rounded=0;" parent="huDF47PdF3qLj8TZO268-9" vertex="1">
                    <mxGeometry x="20" width="243.03" height="100" as="geometry"/>
                </mxCell>
                <mxCell id="huDF47PdF3qLj8TZO268-14" style="edgeStyle=orthogonalEdgeStyle;rounded=0;orthogonalLoop=1;jettySize=auto;html=1;" parent="1" source="huDF47PdF3qLj8TZO268-10" target="huDF47PdF3qLj8TZO268-12" edge="1">
                    <mxGeometry relative="1" as="geometry"/>
                </mxCell>
                <mxCell id="huDF47PdF3qLj8TZO268-10" value="Задать разделяющую функцию в виде&lt;br&gt;\( g'_i(x) = -\frac{1}{2} ln(c_i) - \frac{1}{2} (x-m_i)^T C_i^{-1} (x-m_i) + ln(p(\omega_i)) \)&amp;nbsp;&lt;br&gt;\( i = \overline{1,n} \)&amp;nbsp;" style="rounded=0;whiteSpace=wrap;html=1;" parent="1" vertex="1">
                    <mxGeometry x="190" y="230" width="380" height="90" as="geometry"/>
                </mxCell>
                <mxCell id="huDF47PdF3qLj8TZO268-11" style="edgeStyle=orthogonalEdgeStyle;rounded=0;orthogonalLoop=1;jettySize=auto;html=1;" parent="1" source="huDF47PdF3qLj8TZO268-8" target="huDF47PdF3qLj8TZO268-10" edge="1">
                    <mxGeometry relative="1" as="geometry"/>
                </mxCell>
                <mxCell id="huDF47PdF3qLj8TZO268-15" style="edgeStyle=orthogonalEdgeStyle;rounded=0;orthogonalLoop=1;jettySize=auto;html=1;" parent="1" source="huDF47PdF3qLj8TZO268-12" target="huDF47PdF3qLj8TZO268-13" edge="1">
                    <mxGeometry relative="1" as="geometry"/>
                </mxCell>
                <mxCell id="huDF47PdF3qLj8TZO268-12" value="найти ?гиасс?, которому соответствует максимальное значение разделяющей функции для данного образца&lt;br&gt;\( \omega_i : g'_i (x) \geq g'_j (x) \), \( j= \overline{1,m} , i \neq j \)" style="rounded=0;whiteSpace=wrap;html=1;" parent="1" vertex="1">
                    <mxGeometry x="190" y="360" width="380" height="80" as="geometry"/>
                </mxCell>
                <mxCell id="huDF47PdF3qLj8TZO268-17" style="edgeStyle=orthogonalEdgeStyle;rounded=0;orthogonalLoop=1;jettySize=auto;html=1;" parent="1" source="huDF47PdF3qLj8TZO268-13" target="huDF47PdF3qLj8TZO268-16" edge="1">
                    <mxGeometry relative="1" as="geometry"/>
                </mxCell>
                <mxCell id="huDF47PdF3qLj8TZO268-13" value="" style="shape=parallelogram;perimeter=parallelogramPerimeter;whiteSpace=wrap;html=1;fixedSize=1;" parent="1" vertex="1">
                    <mxGeometry x="190" y="480" width="370" height="70" as="geometry"/>
                </mxCell>
                <mxCell id="huDF47PdF3qLj8TZO268-16" value="Конец" style="ellipse;whiteSpace=wrap;html=1;" parent="1" vertex="1">
                    <mxGeometry x="320" y="600" width="110" height="40" as="geometry"/>
                </mxCell>
                <mxCell id="huDF47PdF3qLj8TZO268-18" value="&lt;span style=&quot;color: rgb(0 , 0 , 0) ; font-family: &amp;#34;helvetica&amp;#34; ; font-size: 12px ; font-style: normal ; font-weight: 400 ; letter-spacing: normal ; text-indent: 0px ; text-transform: none ; word-spacing: 0px ; background-color: rgb(248 , 249 , 250) ; display: inline ; float: none&quot;&gt;найденный класс соответствует классу к которому относится данный образ&lt;/span&gt;" style="text;whiteSpace=wrap;html=1;align=center;" parent="1" vertex="1">
                    <mxGeometry x="210" y="500" width="330" height="50" as="geometry"/>
                </mxCell>
                <mxCell id="2" style="edgeStyle=none;html=1;" edge="1" parent="1" source="huDF47PdF3qLj8TZO268-10" target="huDF47PdF3qLj8TZO268-10">
                    <mxGeometry relative="1" as="geometry"/>
                </mxCell>
            </root>
        </mxGraphModel>
    </diagram>
</mxfile>